<svg width="512" height="512" viewBox="0 0 512 512" fill="none" xmlns="http://www.w3.org/2000/svg">
<path d="M145.458 395.084C127.475 392.399 114.803 376.606 111.903 354.296C110.449 343.115 112.064 332.465 114.384 321.819C116.993 309.843 125.63 287.523 130.521 280.012C131.92 281.942 130.618 283.577 130.202 285.113C126.792 297.703 124.41 310.473 124.935 323.85C125.339 334.129 129.528 341.639 136.121 343.736C140.16 345.021 143.859 343.498 147.478 341.741C157.175 337.031 165.054 329.054 172.729 320.788C193.356 298.568 210.996 272.985 228.996 247.811C231.458 244.368 233.908 240.91 236.297 237.394C239.286 232.994 239.13 231.864 235.084 229.199C224.82 222.435 214.529 215.731 204.247 209.007C203.231 208.343 202.148 207.785 201.175 205.638C246.456 187.838 291.698 170.866 336.969 154C337.383 154.293 337.797 154.585 338.211 154.878C327.218 209.915 316.225 264.951 305.245 319.916C302.757 319.874 302.232 317.839 301.402 316.392C294.969 305.174 288.542 293.949 282.223 282.637C280.513 279.578 278.882 279.04 276.612 281.674C259.639 301.374 242.74 321.165 230.636 345.92C223.667 360.172 218.98 375.253 219.233 392.176C219.461 407.335 224.132 420.231 232.354 431.393C236.951 437.633 242.192 443.021 248.119 447.395C249.188 448.183 250.414 448.819 251.016 450.629C249.133 451.713 247.947 450.154 246.701 449.365C223.653 434.78 203.701 415.431 186.293 392.163C181.02 385.115 181.029 385.313 173.838 388.81C164.865 393.174 155.675 396.463 145.458 395.084Z" fill="white"/>
<path d="M392.034 171.725C395.147 182.137 397.183 192.518 399.169 202.922C399.795 206.203 399.2 208.202 396.487 209.593C392.527 211.622 388.75 214.158 384.833 216.317C382.241 217.746 381.011 219.928 381.337 223.375C382.121 231.677 382.153 239.987 381.517 248.307C381.295 251.205 382.539 252.977 384.674 254.155C389.185 256.646 393.633 259.301 398.147 261.783C400.023 262.814 400.858 264.028 400.607 266.821C399.325 281.036 397.364 295.059 394.017 308.816C393.233 312.039 392.016 313.195 389.415 313.181C384.581 313.156 379.745 313.413 374.912 313.346C372.52 313.313 371.008 314.242 370.091 317.027C367.349 325.354 364.322 333.538 360.484 341.235C359.461 343.288 360.1 344.755 361.089 346.35C364.292 351.512 367.408 356.756 370.685 361.85C372.009 363.907 372.104 365.573 370.844 367.745C364.024 379.507 356.317 390.357 347.971 400.581C346.372 402.539 344.93 402.4 343.083 401.253C338.556 398.442 333.908 395.91 329.415 393.027C327.308 391.675 325.739 391.601 323.78 393.533C318.323 398.912 312.638 403.952 306.63 408.42C304.615 409.918 303.73 411.597 304.294 414.611C305.294 419.96 305.95 425.402 306.766 430.801C307.116 433.115 307.117 435.118 304.889 436.247C294.531 441.492 284.171 446.718 272.962 448.806C271.699 449.041 270.293 449.121 269.087 448.707C255.735 444.124 243.672 436.813 235.29 422.997C225.669 407.137 224.974 389.547 229.742 371.358C234.534 353.074 244.112 338.366 254.654 324.479C259.32 318.333 264.252 312.477 269.09 306.519C269.949 305.462 270.684 304.049 272.167 304.057C272.864 305.803 271.731 306.5 271.115 307.37C260.798 321.958 252.28 337.914 246.356 355.711C241.93 369.007 239.569 382.72 242.363 397.114C242.745 399.085 243.33 400.59 244.812 401.639C248.64 404.347 252.458 407.078 256.215 409.926C258.029 411.302 259.459 410.191 260.957 409.278C278.046 398.86 292.945 384.926 305.945 368.101C331.127 335.513 345.679 296.652 352.588 253.264C355.788 233.172 357.399 212.914 357.872 192.504C357.952 189.073 357.481 185.624 357.28 182.183C357.068 178.541 354.729 177.797 352.427 177.019C345.322 174.621 345.331 174.629 347.186 165.939C348.743 158.645 350.35 151.364 351.774 144.031C352.278 141.437 353.357 140.515 355.38 141.238C364.026 144.33 372.861 146.403 381.713 148.376C383.672 148.813 384.512 150.379 385.306 152.257C387.916 158.431 390.029 164.849 392.034 171.725Z" fill="white"/>
<path d="M139.104 146.165C164.952 139.821 189.259 129.51 212.072 114.271C226.966 104.322 241.315 93.4028 254.033 79.6148C254.767 78.819 255.391 77.5824 256.858 78.1398C257.415 81.0785 256.573 83.9473 256.023 86.7668C251.745 108.713 241.446 125.861 226.926 139.66C206.762 158.823 183.461 169.445 158.723 176.104C155.365 177.007 153.788 178.853 153.73 183.075C153.246 218.1 156.443 252.506 165.36 285.98C165.6 286.88 165.867 287.77 166.142 288.654C167.574 293.257 168.286 293.615 171.786 290.871C184.103 281.216 195.17 269.669 205.99 257.762C208.884 254.577 211.662 251.237 214.5 247.977C215.212 247.158 215.761 245.956 216.959 246.156C217.744 247.562 216.911 248.377 216.368 249.167C201.092 271.36 185.976 293.742 167.693 312.567C162.729 317.679 157.585 322.539 152.071 326.815C149.601 328.73 148.284 328.452 147.071 325.035C139.126 302.65 133.41 279.5 129.66 255.566C125.636 229.894 124.565 204.03 124.952 177.988C125.083 169.148 126.058 160.422 126.605 151.64C126.746 149.386 127.591 148.311 129.497 148.029C132.604 147.568 135.682 146.836 139.104 146.165Z" fill="white"/>
<path d="M263.928 88.8975C267.057 91.4753 269.757 93.6975 272.675 96.0664L272.685 96.0742C294.561 112.967 317.108 127.575 341.727 137.17C341.391 137.965 341.032 138.38 340.697 138.629C340.276 138.943 339.881 139.027 339.339 139.236C326.566 144.172 313.769 149.047 301.012 154.061C299.147 154.793 297.639 154.346 295.861 153.314C284.937 146.982 274.307 140.007 264.09 132.152C263.056 131.357 262.113 130.807 261.104 130.806C260.075 130.805 259.123 131.371 258.058 132.417C244.176 146.053 228.278 155.16 211.397 161.988C211.267 162.041 211.139 162.101 211.022 162.156C210.901 162.214 210.79 162.267 210.677 162.315C210.451 162.413 210.249 162.479 210.049 162.496C209.778 162.519 209.426 162.458 208.958 162.071C235.693 147.135 255.646 124.72 263.928 88.8975Z" fill="white" stroke="black"/>
</svg>
