<svg version="1.1" id="Layer_1" xmlns="http://www.w3.org/2000/svg" xmlns:xlink="http://www.w3.org/1999/xlink" x="0px" y="0px"
	 width="100%" viewBox="0 0 1024 544" enable-background="new 0 0 1024 544" xml:space="preserve">
<path fill="#000000" opacity="1.000000" stroke="none" 
	d="
M368.606873,417.718140 
	C345.562195,414.867035 329.324127,398.094849 325.607208,374.400665 
	C323.744568,362.526855 325.813965,351.216187 328.786682,339.909607 
	C332.130707,327.190552 343.198395,303.486481 349.466431,295.510101 
	C351.258453,297.559570 349.589813,299.296387 349.057007,300.926788 
	C344.687134,314.298492 341.634583,327.860168 342.307739,342.067230 
	C342.824890,352.982788 348.193268,360.958679 356.642426,363.186371 
	C361.818237,364.551025 366.558502,362.933472 371.195312,361.067200 
	C383.622101,356.065552 393.718994,347.594025 403.553802,338.814453 
	C429.987183,315.217285 452.591614,288.046722 475.658478,261.311798 
	C478.813477,257.655121 481.953186,253.983231 485.014557,250.248383 
	C488.844360,245.576035 488.644714,244.376205 483.460541,241.545166 
	C470.307343,234.362274 457.119843,227.242264 443.943787,220.101273 
	C442.641693,219.395569 441.254211,218.803162 440.006561,216.523193 
	C498.033020,197.619095 556.009644,179.594467 614.022095,161.682785 
	C614.552979,161.993668 615.083862,162.304565 615.614746,162.615448 
	C601.527039,221.065231 587.439331,279.515015 573.369873,337.889069 
	C570.181152,337.843750 569.507812,335.683075 568.444336,334.146118 
	C560.200500,322.232147 551.965332,310.311096 543.867004,298.298218 
	C541.676331,295.048553 539.585510,294.477997 536.677551,297.275085 
	C514.926025,318.197296 493.271667,339.214874 477.759979,365.505768 
	C468.829834,380.641602 462.823120,396.658173 463.148102,414.630493 
	C463.439178,430.729126 469.425568,444.425659 479.961548,456.279175 
	C485.852234,462.906525 492.569275,468.628693 500.164581,473.273651 
	C501.534119,474.111176 503.105133,474.786469 503.876343,476.708862 
	C501.462952,477.859344 499.943146,476.203949 498.346375,475.366425 
	C468.811951,459.876007 443.243988,439.327850 420.936066,414.616150 
	C414.179230,407.131195 414.189819,407.341156 404.975769,411.055359 
	C393.477173,415.690491 381.700653,419.183258 368.606873,417.718140 
z"/>
<path fill="#000000" opacity="1.000000" stroke="none" 
	d="
M684.009583,180.107986 
	C687.980042,191.150009 690.575867,202.157990 693.108398,213.191711 
	C693.906921,216.670486 693.148254,218.790741 689.688416,220.265564 
	C684.639343,222.417801 679.821960,225.106583 674.827637,227.396149 
	C671.522156,228.911484 669.954102,231.225555 670.369141,234.881210 
	C671.368652,243.684509 671.410339,252.497131 670.598877,261.320587 
	C670.316223,264.393341 671.902771,266.272522 674.625000,267.522339 
	C680.377258,270.163147 686.049133,272.979492 691.805481,275.611023 
	C694.197876,276.704712 695.263062,277.991699 694.941833,280.954071 
	C693.307678,296.028534 690.806885,310.899139 686.539490,325.487183 
	C685.539612,328.905121 683.987549,330.130981 680.670715,330.116638 
	C674.506042,330.089996 668.339172,330.362854 662.175842,330.291473 
	C659.126465,330.256195 657.197449,331.241760 656.028320,334.194885 
	C652.532166,343.026093 648.671997,351.704346 643.777954,359.867096 
	C642.473022,362.043579 643.287598,363.600037 644.548950,365.290527 
	C648.634033,370.765381 652.607117,376.326019 656.785950,381.727753 
	C658.473999,383.909729 658.595276,385.676300 656.989136,387.979614 
	C648.291626,400.452911 638.464478,411.958954 627.820801,422.800934 
	C625.782104,424.877625 623.943848,424.730011 621.587708,423.513306 
	C615.815674,420.532532 609.888855,417.847321 604.159241,414.790375 
	C601.472351,413.356842 599.471191,413.277679 596.972473,415.326385 
	C590.014709,421.031006 582.765137,426.375854 575.102966,431.113831 
	C572.534241,432.702271 571.405396,434.483276 572.124268,437.679413 
	C573.400085,443.351654 574.236023,449.122437 575.276794,454.848175 
	C575.722778,457.301483 575.724731,459.426208 572.883423,460.622864 
	C559.675537,466.185669 546.463623,471.727722 532.170776,473.941498 
	C530.559509,474.191071 528.766357,474.275391 527.228760,473.836517 
	C510.202271,468.976593 494.819763,461.223724 484.131775,446.571899 
	C471.862762,429.752838 470.976929,411.099304 477.056000,391.810944 
	C483.166809,372.421844 495.380798,356.824524 508.823608,342.098206 
	C514.774109,335.579590 521.063843,329.369781 527.232910,323.052277 
	C528.328186,321.930603 529.264832,320.432007 531.156677,320.441284 
	C532.045532,322.292358 530.599976,323.031647 529.815491,323.954102 
	C516.659363,339.423950 505.796997,356.344788 498.242706,375.217773 
	C492.598846,389.317902 489.587280,403.860321 493.150208,419.124207 
	C493.638092,421.214447 494.384308,422.810699 496.273590,423.922424 
	C501.154602,426.794464 506.024109,429.690765 510.814026,432.710907 
	C513.127869,434.169800 514.951172,432.991913 516.861877,432.023254 
	C538.652893,420.975372 557.652039,406.199097 574.230530,388.357117 
	C606.341675,353.798737 624.898621,312.588196 633.709412,266.577332 
	C637.789673,245.269760 639.843628,223.787231 640.447083,202.143127 
	C640.548584,198.504730 639.948608,194.847839 639.692383,191.198105 
	C639.421326,187.336304 636.439026,186.546936 633.503235,185.722641 
	C624.443054,183.178741 624.454163,183.188171 626.819824,173.972794 
	C628.805603,166.237320 630.854797,158.515823 632.671082,150.740295 
	C633.313721,147.989044 634.689636,147.010849 637.269836,147.778259 
	C648.293945,151.057068 659.561340,153.255051 670.848877,155.347794 
	C673.347168,155.810974 674.417847,157.471390 675.430664,159.463226 
	C678.759521,166.010391 681.453491,172.816818 684.009583,180.107986 
z"/>
<path fill="#000000" opacity="1.000000" stroke="none" 
	d="
M360.693878,153.597946 
	C393.637573,146.889847 424.618408,135.989151 453.693909,119.877266 
	C472.676270,109.358398 490.965515,97.814453 507.174713,83.236961 
	C508.110168,82.395660 508.906067,81.088203 510.774872,81.677528 
	C511.485382,84.784454 510.411682,87.817558 509.711182,90.798500 
	C504.258820,114.001274 491.132721,132.130676 472.625366,146.720261 
	C446.925507,166.979767 417.227936,178.210022 385.698242,185.250153 
	C381.418823,186.205688 379.408661,188.157379 379.334381,192.620956 
	C378.718018,229.650848 382.792999,266.027527 394.158051,301.417969 
	C394.463440,302.368958 394.803314,303.309723 395.154205,304.245087 
	C396.979736,309.111298 397.887054,309.489319 402.347443,306.589020 
	C418.046021,296.381134 432.152191,284.172791 445.942322,271.583710 
	C449.631226,268.216064 453.171051,264.685333 456.788147,261.238678 
	C457.696411,260.373169 458.395355,259.102081 459.922089,259.313721 
	C460.923065,260.800385 459.861664,261.661835 459.168945,262.496704 
	C439.699493,285.960175 420.433594,309.623871 397.131378,329.527100 
	C390.803772,334.931702 384.248627,340.069824 377.219910,344.590668 
	C374.071655,346.615662 372.393616,346.321045 370.847748,342.708374 
	C360.721130,319.042297 353.436493,294.566162 348.655914,269.262054 
	C343.528137,242.120255 342.162811,214.775894 342.655762,187.242172 
	C342.823059,177.896744 344.065399,168.670944 344.762817,159.386444 
	C344.941895,157.002441 346.019897,155.866776 348.449280,155.567947 
	C352.408417,155.080963 356.332306,154.307419 360.693878,153.597946 
z"/>
<path fill="#000000" opacity="1.000000" stroke="none" 
	d="
M532.143677,99.834015 
	C560.265503,117.765541 589.223511,133.237244 620.851624,143.338211 
	C619.814941,145.793121 618.408203,145.927444 617.201721,146.312439 
	C600.867554,151.524811 584.511658,156.669525 568.203552,161.961914 
	C565.557007,162.820786 563.413635,162.264053 561.063599,161.139114 
	C547.077209,154.443863 533.462524,147.067749 520.375122,138.759338 
	C517.749268,137.092316 516.149109,136.848282 513.500610,138.996643 
	C495.677521,153.454041 475.273285,163.102554 453.636108,170.329514 
	C452.465057,170.720642 451.190643,171.636307 449.220062,169.811432 
	C483.885834,153.994003 509.693024,130.147217 520.169617,91.727501 
	C524.513550,94.682541 528.170776,97.170441 532.143677,99.834015 
z"/>
</svg>