<svg version="1.1" id="Layer_1" xmlns="http://www.w3.org/2000/svg" xmlns:xlink="http://www.w3.org/1999/xlink" x="0px" y="0px"
	 width="100%" viewBox="0 0 1024 544" enable-background="new 0 0 1024 544" xml:space="preserve">
<path fill="#000000" opacity="1.000000" stroke="none" 
	d="
M320.858887,289.897522 
	C309.834900,300.335938 299.231659,310.690155 290.844513,323.050873 
	C286.306732,329.738495 282.939301,336.959320 281.392548,344.905029 
	C278.400085,360.277435 284.047943,372.238098 296.168060,381.588409 
	C298.331726,383.257660 301.076965,384.251251 302.871765,386.715668 
	C300.472717,388.221954 299.135620,386.471863 297.704071,385.675110 
	C282.151123,377.018829 268.176392,366.308563 256.402161,352.929016 
	C253.822144,349.997223 251.825211,349.708862 248.403778,351.292053 
	C241.041702,354.698822 233.208221,356.445465 225.073395,354.906311 
	C211.691544,352.374329 202.370758,339.467590 203.153305,324.971924 
	C203.847839,312.106934 209.003586,300.837738 215.590179,290.080841 
	C215.799011,289.739807 216.349335,289.607880 217.433792,288.971741 
	C216.288757,295.224884 214.063324,300.605804 213.653610,306.356018 
	C213.428055,309.521729 213.077026,312.643616 213.802933,315.782928 
	C215.762970,324.259583 220.768616,326.846771 229.038147,323.636536 
	C236.642365,320.684631 242.918015,315.662354 248.799484,310.264008 
	C264.659515,295.706787 278.752838,279.477631 292.577179,263.016327 
	C293.189911,262.286713 293.594116,261.381989 294.350983,260.139313 
	C285.432098,255.282639 276.738678,250.548737 268.045258,245.814819 
	C268.037750,245.291565 268.030273,244.768326 268.022797,244.245071 
	C300.083710,234.264374 332.144623,224.283676 365.865662,213.786194 
	C357.652283,247.231750 349.784271,279.271118 341.710083,312.149933 
	C337.551697,308.593903 335.721558,304.646423 333.220490,301.255463 
	C330.651550,297.772491 328.258087,294.156830 325.869843,290.544983 
	C324.533569,288.524109 323.133911,287.611694 320.858887,289.897522 
z"/>
<path fill="#000000" opacity="1.000000" stroke="none" 
	d="
M288.762299,339.009949 
	C294.678802,323.900848 305.365967,313.065887 317.103058,301.928711 
	C317.485931,305.098206 315.828491,306.004639 314.855835,307.214508 
	C309.292206,314.134521 304.654022,321.605438 300.986115,329.695740 
	C297.753113,336.826813 296.480713,344.219574 296.994751,352.065674 
	C297.240356,355.814331 298.767578,358.015015 301.789520,360.090179 
	C306.242493,363.147980 309.914246,363.581238 314.881256,360.576080 
	C343.288544,343.388947 362.097626,318.923309 371.552490,287.220062 
	C376.627197,270.203766 378.769653,252.753143 378.802734,234.997070 
	C378.810272,230.951721 378.015076,228.102448 373.569580,227.548859 
	C370.909729,227.217636 370.265350,225.731918 370.867249,223.354431 
	C372.010559,218.838425 373.173126,214.326843 374.258789,209.796906 
	C374.829773,207.414536 375.966370,206.536087 378.552338,207.174774 
	C384.041290,208.530472 389.588318,209.667114 395.141205,210.739990 
	C397.386780,211.173843 398.541931,212.516998 399.480774,214.417847 
	C403.863403,223.291031 406.468689,232.742188 408.822510,242.296387 
	C409.500610,245.048645 408.356842,246.667862 406.032043,247.249771 
	C397.106659,249.483887 395.678589,255.452728 396.050232,263.759583 
	C396.315735,269.693726 397.905487,273.143494 403.535034,274.779510 
	C408.431366,276.202454 410.684998,278.744843 409.582733,284.603760 
	C408.350494,291.153656 406.600830,297.567322 405.348633,304.096008 
	C404.828766,306.806458 402.951782,307.776764 400.587555,307.294128 
	C391.625885,305.464478 387.251587,309.596222 383.967834,317.705719 
	C381.812897,323.027466 381.435791,326.548462 385.262115,331.014618 
	C390.239868,336.824707 390.056671,337.190002 385.411072,343.164490 
	C381.939880,347.628601 378.015198,351.737091 374.426605,356.113922 
	C372.003510,359.069244 369.378815,359.749146 366.260681,357.394623 
	C360.104065,352.745605 355.066040,353.745239 348.647308,358.249969 
	C342.557068,362.524170 340.378174,366.733582 342.551086,373.387909 
	C343.724304,376.980896 342.261322,378.653412 339.106476,379.708496 
	C333.898438,381.450317 328.657562,383.115143 323.531128,385.075562 
	C312.341461,389.354767 288.744873,375.099396 286.636444,358.537689 
	C285.791687,351.902283 286.594940,345.627197 288.762299,339.009949 
z"/>
<path fill="#000000" opacity="1.000000" stroke="none" 
	d="
M275.164185,270.441437 
	C276.184540,269.708679 276.969513,269.193359 277.653229,268.744537 
	C278.631287,269.574280 278.326874,270.247375 277.908752,270.741608 
	C265.098877,285.883484 252.345840,301.090759 236.089096,312.798309 
	C230.296600,316.969849 229.863541,316.767090 227.100739,310.039856 
	C216.692032,284.695587 212.568817,258.221069 212.951859,230.958679 
	C213.021912,225.972107 213.550568,220.990494 213.915009,216.010071 
	C214.128204,213.096313 215.150757,211.212296 218.572739,210.636551 
	C250.455246,205.272430 279.051239,192.613922 303.867249,171.716110 
	C304.618561,171.083420 305.327209,170.319855 306.778717,170.546844 
	C307.940979,172.294373 307.168549,174.153885 306.661499,176.028641 
	C302.324463,192.064270 292.032471,203.450943 278.283478,212.008179 
	C266.286957,219.474731 253.194412,224.314331 239.416641,227.299896 
	C236.187134,227.999710 234.122223,229.005173 234.052704,233.026703 
	C233.722305,252.140091 235.793579,270.898315 241.416504,289.210632 
	C243.237122,295.139801 244.112030,295.432159 249.197403,292.022614 
	C258.506592,285.781128 266.959412,278.512085 275.164185,270.441437 
z"/>
<path fill="#000000" opacity="1.000000" stroke="none" 
	d="
M571.983643,261.934082 
	C569.544250,263.958313 567.345276,265.715637 564.521484,267.972382 
	C569.714111,275.867126 574.928223,283.794495 580.882019,292.846466 
	C573.319214,293.392517 567.110596,293.463409 560.908264,292.853333 
	C559.125671,292.678040 558.389282,290.798981 557.470093,289.434906 
	C554.119629,284.462921 550.863220,279.426636 547.457886,274.492950 
	C545.518005,271.682465 534.937988,269.916321 532.260315,271.835052 
	C530.828308,272.861176 530.978149,274.453217 530.959229,275.930725 
	C530.905823,280.094543 530.852844,284.259827 530.906738,288.423096 
	C530.948730,291.657959 529.776794,293.425842 526.229919,293.269623 
	C522.739197,293.115845 519.231873,293.166870 515.738342,293.299286 
	C512.568420,293.419434 511.255463,292.152893 511.282288,288.894562 
	C511.465973,266.577393 511.637848,244.258942 511.562164,221.941757 
	C511.547729,217.685440 512.735596,215.805878 517.155029,216.011688 
	C530.428406,216.629822 543.855530,214.417847 556.977478,217.578430 
	C577.981140,222.637375 585.485962,244.629517 571.983643,261.934082 
M532.505615,255.526566 
	C537.165344,255.565475 541.834717,255.812317 546.482605,255.596237 
	C554.119507,255.241165 559.070374,250.262421 558.966553,243.424820 
	C558.862976,236.606384 554.294861,232.515259 546.357361,232.274918 
	C542.531372,232.159073 538.699219,232.220718 534.870117,232.246323 
	C533.350342,232.256470 531.349121,232.340454 531.312622,234.182312 
	C531.173401,241.206879 529.820801,248.276566 532.505615,255.526566 
z"/>
<path fill="#000000" opacity="1.000000" stroke="none" 
	d="
M669.805298,246.743134 
	C672.449280,269.155701 663.244507,285.718719 643.694214,292.099701 
	C621.049438,299.490723 593.218018,290.254974 587.341370,263.495728 
	C582.071228,239.497833 597.957458,218.129883 622.384094,215.581268 
	C638.959229,213.851883 652.979675,218.245255 663.458679,231.746384 
	C666.790344,236.038834 668.418762,241.115768 669.805298,246.743134 
M649.117065,244.499054 
	C643.956177,234.595779 636.260071,230.773636 624.270569,232.159439 
	C615.973755,233.118454 608.430908,239.982803 606.534241,248.300385 
	C604.198547,258.543091 607.829224,268.541351 615.840332,273.927917 
	C623.868958,279.326263 635.066895,278.860229 642.998413,272.797546 
	C650.701477,266.909515 653.277832,255.893494 649.117065,244.499054 
z"/>
<path fill="#000000" opacity="1.000000" stroke="none" 
	d="
M800.133423,242.914581 
	C807.473267,259.014771 814.657166,274.773132 821.810303,290.545410 
	C821.991455,290.944824 821.833191,291.498169 821.833191,292.692474 
	C815.959656,293.592010 810.047363,293.322144 804.178284,292.908997 
	C801.868469,292.746368 801.461487,290.254944 800.639160,288.464050 
	C794.388367,274.850922 798.109436,277.638794 783.816833,277.335693 
	C777.653809,277.204987 771.483093,277.425354 765.320679,277.281738 
	C762.278687,277.210846 759.838257,277.998138 759.270813,281.159149 
	C757.277893,292.259705 750.130676,294.908020 740.132690,293.272858 
	C738.542236,293.012756 736.805786,293.528351 735.552795,292.467133 
	C734.746460,291.032532 735.425659,289.988342 735.896606,288.953064 
	C746.035156,266.664673 756.272949,244.420654 766.253357,222.061752 
	C767.967773,218.220856 770.047302,216.586853 774.384583,216.353745 
	C787.500122,215.648773 787.514038,215.417206 792.975708,227.094208 
	C795.374695,232.223236 797.644836,237.412567 800.133423,242.914581 
M772.047729,251.458420 
	C771.142151,254.715652 768.598083,257.454742 768.774963,261.590942 
	C775.301208,262.163727 781.606140,262.058502 788.912109,261.676453 
	C785.325073,253.173965 782.115906,245.567169 778.366150,236.679031 
	C775.947266,242.324463 774.141541,246.538635 772.047729,251.458420 
z"/>
<path fill="#000000" opacity="1.000000" stroke="none" 
	d="
M441.781189,275.997986 
	C441.779877,258.008453 441.771423,240.518585 441.783234,223.028717 
	C441.787689,216.462860 442.063080,216.104233 448.396851,216.075775 
	C463.887604,216.006180 479.381165,216.179855 494.868347,215.928909 
	C500.001953,215.845718 501.452393,217.803635 501.327515,222.709686 
	C501.087585,232.134842 501.325775,232.128860 492.082306,232.104843 
	C483.420715,232.082321 474.756866,232.201248 466.098511,232.029953 
	C462.420715,231.957199 461.084198,233.340698 461.151581,237.003540 
	C461.431946,252.239197 459.654633,249.316116 473.464966,249.580490 
	C479.621307,249.698349 485.787811,249.522034 491.944061,249.312866 
	C495.105560,249.205444 496.475555,250.337723 496.424530,253.632446 
	C496.210388,267.451172 497.721710,265.095490 485.216370,265.251709 
	C479.054138,265.328705 472.885406,265.433075 466.729004,265.234070 
	C462.684113,265.103302 460.974030,266.537201 461.156647,270.725616 
	C461.410370,276.545013 461.119446,282.386627 461.299896,288.211334 
	C461.410187,291.769867 460.234650,293.494690 456.442871,293.264160 
	C453.124481,293.062469 449.776154,293.112030 446.453522,293.287201 
	C442.920166,293.473572 441.686218,291.790192 441.764832,288.490234 
	C441.860016,284.494843 441.784027,280.495361 441.781189,275.997986 
z"/>
<path fill="#000000" opacity="1.000000" stroke="none" 
	d="
M717.042358,253.000214 
	C717.036560,264.822876 716.899109,276.147797 717.091125,287.467163 
	C717.163696,291.744415 715.784790,293.668457 711.340210,293.226166 
	C708.702087,292.963684 705.997742,292.974213 703.356689,293.221252 
	C698.851501,293.642670 697.640930,291.554962 697.681213,287.356049 
	C697.839539,270.872925 697.617981,254.385742 697.833313,237.903931 
	C697.889832,233.579330 696.661987,231.859634 692.195190,232.156845 
	C687.388428,232.476685 682.542542,232.183167 677.713989,232.210297 
	C675.078674,232.225098 673.915771,231.119034 673.684387,228.362717 
	C672.730896,217.004608 672.781311,217.060654 684.243835,216.519897 
	C700.889648,215.734619 717.537598,216.301727 734.183044,216.105255 
	C741.053345,216.024155 741.199829,216.297379 741.231873,223.065231 
	C741.237366,224.230789 741.118713,225.410873 741.259644,226.559402 
	C741.801758,230.976395 739.840881,232.553375 735.519592,232.273972 
	C731.374268,232.005951 727.180054,232.460800 723.039795,232.156601 
	C718.559814,231.827438 716.622925,233.294556 716.954285,238.018768 
	C717.291443,242.824310 717.037170,247.671371 717.042358,253.000214 
z"/>
<path fill="#000000" opacity="1.000000" stroke="none" 
	d="
M769.197632,355.985168 
	C769.192322,358.980927 769.040100,361.489960 769.217346,363.975555 
	C769.500000,367.940369 767.661133,369.178894 763.883362,369.222137 
	C759.939087,369.267273 758.645752,367.709198 758.675537,363.880280 
	C758.799988,347.890656 758.690125,331.899353 758.748535,315.908936 
	C758.756348,313.759552 757.796814,310.832855 761.209106,310.256958 
	C764.354370,309.726135 767.462158,309.502991 769.510132,313.014130 
	C773.704590,320.205017 778.100037,327.278687 782.422119,334.394928 
	C785.003906,338.645782 787.603333,342.885925 790.144531,347.048462 
	C792.800598,346.625366 793.169861,344.536743 794.034119,343.101807 
	C799.789795,333.545288 805.413147,323.909149 811.098145,314.309906 
	C811.935669,312.895691 812.595032,311.341187 814.253723,310.567993 
	C818.981812,308.363983 822.344421,310.417145 822.401062,315.614044 
	C822.575256,331.598969 822.663269,347.585388 822.949219,363.568237 
	C823.028015,367.972473 821.201538,369.476013 816.940369,369.198547 
	C813.716858,368.988647 812.606812,367.628021 812.646484,364.512573 
	C812.754517,356.019043 812.693542,347.522949 812.649109,339.028137 
	C812.637207,336.754822 812.929504,334.415009 811.538635,331.739044 
	C806.296875,340.631104 801.247498,349.198639 796.196289,357.765106 
	C792.439209,364.136688 789.374695,364.106628 785.521118,357.730530 
	C780.456665,349.350800 775.339294,341.002991 769.198547,332.832886 
	C769.198547,340.384583 769.198547,347.936279 769.197632,355.985168 
z"/>
<path fill="#000000" opacity="1.000000" stroke="none" 
	d="
M738.213013,364.912048 
	C738.273376,368.175201 736.696838,369.171967 734.113708,369.168549 
	C721.780762,369.152191 709.447754,369.139587 697.114929,369.172241 
	C694.260864,369.179810 693.484253,367.777161 693.499146,365.092163 
	C693.593323,348.093292 693.611877,331.093414 693.525024,314.094543 
	C693.509583,311.071777 694.603638,309.928925 697.597839,309.945618 
	C709.263672,310.010651 720.931213,310.017242 732.596130,309.879333 
	C736.191895,309.836853 737.168579,311.466309 737.134338,314.763763 
	C737.098816,318.179871 735.771667,319.480591 732.330444,319.399261 
	C724.834595,319.222046 717.328125,319.471680 709.833679,319.267303 
	C705.886353,319.159637 704.134644,320.311554 704.139648,324.614319 
	C704.151367,334.703094 704.059631,334.722473 714.478821,334.221283 
	C719.135559,333.997223 723.810730,334.185547 728.474915,334.075958 
	C731.676453,334.000702 733.356140,334.984680 733.384338,338.630310 
	C733.414062,342.483551 731.745483,343.498657 728.241882,343.405640 
	C721.913208,343.237701 715.573669,343.481812 709.244812,343.317871 
	C705.657654,343.224945 704.121643,344.478607 704.180359,348.223755 
	C704.386780,361.399475 702.984558,359.554932 715.160522,359.682037 
	C721.159729,359.744690 727.163391,359.817688 733.158691,359.653412 
	C736.670654,359.557159 738.641541,360.628296 738.213013,364.912048 
z"/>
<path fill="#000000" opacity="1.000000" stroke="none" 
	d="
M444.537231,318.939453 
	C446.926605,314.775787 450.307861,312.457458 454.431366,311.214661 
	C463.520782,308.475159 472.485046,308.937714 481.329926,312.392548 
	C485.102234,313.866028 485.779205,316.068512 484.154419,319.822357 
	C482.438995,323.785522 480.407684,322.764801 477.496826,321.450836 
	C471.632568,318.803802 465.507874,317.399536 459.104462,319.674744 
	C456.083405,320.748199 453.697144,322.505920 453.497864,325.973663 
	C453.290619,329.580322 455.834503,331.311188 458.699371,332.528931 
	C464.694580,335.077240 471.337982,335.422119 477.347687,338.040710 
	C485.003082,341.376373 488.532837,346.097778 488.147644,353.126068 
	C487.762177,360.158447 483.336212,365.768677 476.073029,368.044373 
	C466.278351,371.113312 456.621643,370.297699 447.308228,366.203094 
	C439.907196,362.949249 439.616333,361.169434 445.089661,353.824890 
	C450.086792,356.727814 455.231354,359.672699 461.326294,360.347260 
	C464.938385,360.747070 468.335297,360.368408 471.660675,359.330597 
	C474.499390,358.444702 476.618774,356.516541 476.861542,353.266266 
	C477.097382,350.107941 475.092102,348.259918 472.562439,347.155243 
	C469.832672,345.963165 466.923035,345.166473 464.061859,344.295990 
	C460.879761,343.327850 457.615479,342.612671 454.471191,341.540405 
	C443.159912,337.683075 439.953278,330.550659 444.537231,318.939453 
z"/>
<path fill="#000000" opacity="1.000000" stroke="none" 
	d="
M594.463501,345.526611 
	C589.292603,344.043579 584.410095,342.920990 579.720398,341.255676 
	C571.943970,338.494293 568.695374,334.060486 568.695496,327.018433 
	C568.695618,319.561035 572.439209,314.206757 579.791870,311.554352 
	C589.148254,308.179260 598.417419,309.070312 607.618591,312.384888 
	C611.269287,313.699951 611.911987,315.722076 610.408936,319.315552 
	C608.912415,322.893158 607.210693,323.179688 603.939209,321.568939 
	C598.626038,318.952972 592.964722,317.804565 586.999512,319.259827 
	C583.221375,320.181488 579.720276,321.631836 579.536194,326.074646 
	C579.356262,330.418671 582.955261,331.884644 586.324524,332.965698 
	C591.704529,334.691956 597.291687,335.819031 602.582397,337.766724 
	C610.877441,340.820282 614.316223,345.605072 614.161865,352.773438 
	C614.005859,360.018402 609.393494,365.956970 601.449402,368.219910 
	C590.731506,371.272949 580.339783,369.987610 570.561096,364.610443 
	C566.803406,362.544189 566.698608,357.415192 570.146118,354.694489 
	C572.023987,353.212524 573.253784,354.815979 574.545471,355.660797 
	C580.178650,359.345245 586.355957,361.139954 593.023987,360.452148 
	C597.577576,359.982483 602.733887,358.800140 603.247498,353.403717 
	C603.733521,348.296082 598.767578,347.068665 594.463501,345.526611 
z"/>
<path fill="#000000" opacity="1.000000" stroke="none" 
	d="
M276.359009,216.804474 
	C294.107697,208.492157 306.226562,195.477417 312.286713,176.116760 
	C330.019440,188.158585 348.352661,197.504791 369.107178,204.656219 
	C363.153015,207.902588 357.911041,208.780121 352.999237,210.484833 
	C336.362976,216.258759 336.014862,216.691864 321.233307,207.268860 
	C313.534058,202.360687 307.798920,201.357132 300.455750,207.683289 
	C294.302338,212.984421 286.278351,215.624069 278.613251,218.448334 
	C275.987823,219.415665 275.941254,219.289246 276.359009,216.804474 
z"/>
<path fill="#000000" opacity="1.000000" stroke="none" 
	d="
M509.908264,310.507080 
	C515.664185,317.102722 519.229919,324.710236 523.997253,331.529053 
	C527.478455,336.508240 528.438660,336.639160 531.651245,331.720703 
	C535.112061,326.422119 538.481506,321.063446 541.861267,315.712280 
	C545.802185,309.472595 547.437134,308.836151 555.114319,310.709320 
	C556.063843,312.819519 554.343628,314.104095 553.448303,315.561401 
	C548.042053,324.361359 542.745667,333.238129 537.027588,341.833130 
	C534.208069,346.071198 532.787781,350.355408 533.245422,355.396729 
	C533.470459,357.875702 533.300964,360.392212 533.279846,362.891449 
	C533.230591,368.731049 530.370789,370.724243 524.684570,369.064575 
	C522.565735,368.446167 522.175598,366.988708 522.472168,365.228271 
	C524.564636,352.809326 519.850586,342.562164 512.818054,332.762909 
	C507.999542,326.048767 503.973145,318.766174 499.489655,311.572327 
	C503.055115,309.134338 506.344147,310.041534 509.908264,310.507080 
z"/>
<path fill="#000000" opacity="1.000000" stroke="none" 
	d="
M644.002075,309.914612 
	C653.157837,309.919220 661.814270,309.973480 670.469849,309.906372 
	C673.758423,309.880890 676.311157,310.057373 676.352051,314.528748 
	C676.390991,318.774261 674.348999,319.387146 670.798462,319.413757 
	C656.908508,319.517670 656.947327,319.600037 656.876465,333.325226 
	C656.823242,343.641266 656.516296,353.957825 656.602417,364.271851 
	C656.641235,368.917877 654.046143,369.181458 650.488037,369.206024 
	C646.620178,369.232758 645.715454,367.319397 645.737366,363.913025 
	C645.821106,350.929382 645.604614,337.942169 645.827454,324.961914 
	C645.903687,320.520508 644.309631,318.932709 640.011047,319.312958 
	C637.203369,319.561279 634.350891,319.252136 631.526794,319.378632 
	C628.352722,319.520782 626.607788,318.667755 626.557495,314.975555 
	C626.506775,311.252563 627.939026,309.855347 631.518127,309.952850 
	C635.509583,310.061646 639.507385,309.938232 644.002075,309.914612 
z"/>
</svg>